<svg width="30" height="30" viewBox="0 0 30 30" fill="none" xmlns="http://www.w3.org/2000/svg">
<path d="M15 7.96306C14.4837 7.63994 12.7942 7.48322 11.5218 7.70479C8.61727 8.21255 6.19222 9.94816 4.83679 12.4962C4.08992 13.8995 3.79486 15.0258 3.7211 16.706C3.59201 19.688 4.48641 22.5499 6.29366 24.9594C8.22078 27.5352 10.9778 29.2615 14.1036 29.8524C14.5277 29.9354 14.9539 30 15 30L14.9955 26.7818L14.4078 26.6304C11.2083 25.8272 8.43286 23.1869 7.39092 19.9557C6.18301 16.2352 7.43706 12.8932 10.5629 11.4438C12.0013 10.7791 13.3772 10.9358 15 11.3051V7.96306Z" fill="white" fill-opacity="0.95"/>
<path d="M7.95336 15.1009C7.63063 15.6179 7.5108 17.2446 7.7321 18.5186C8.23924 21.4267 9.97271 23.8547 12.5176 25.2118C13.9192 25.9596 15.0441 26.255 16.7223 26.3289C19.7005 26.4581 22.559 25.5626 24.9655 23.7532C27.5381 21.8237 29.2623 19.0633 29.8525 15.9336C29.9354 15.5091 30 15.1034 30 15.1034H26.7844L26.6345 15.629C25.8323 18.8325 23.1952 21.6113 19.9679 22.6545C16.252 23.8639 12.9141 22.6084 11.4665 19.4788C10.8026 18.0386 10.84 16.7258 11.2088 15.1009H7.95336Z" fill="white" fill-opacity="0.95"/>
<path d="M15 3.21823L15.5874 3.37046C18.7858 4.17822 21.5575 6.82251 22.5948 10.0552C23.7974 13.7774 22.5386 17.1177 19.4107 18.5626C17.9714 19.2252 16.6223 19.2684 15 18.8968V22.0738C15.5159 22.3976 17.1738 22.5199 18.4465 22.3001C21.3517 21.7965 23.7793 20.0644 25.1383 17.5183C25.8872 16.1161 26.1838 14.9902 26.26 13.3101C26.3933 10.3284 25.503 7.46519 23.6993 5.05306C21.7758 2.47459 19.0213 0.744245 15.8963 0.148921C15.4723 0.0652265 15.0461 6.70232e-05 15 0V3.21823Z" fill="white" fill-opacity="0.95"/>
<path d="M13.495 3.63203C12.275 3.52927 11.2359 3.68746 10.3691 3.8721C6.66244 4.65681 3.50898 6.94636 1.6003 10.2237C0.83498 11.5346 0 14.2171 0 15.1034H3.27335L3.51819 14.2119C4.34806 10.99 7.00361 8.35882 10.4982 7.30638C11.2174 7.08482 11.7774 7.01545 12.6099 7.01409C13.8024 7.01215 14.5645 7.13099 15.6064 7.6018C17.2754 8.36806 18.5295 9.72719 18.9813 11.7747C19.2396 12.9455 19.0125 14.2331 18.8558 14.8424L18.7912 15.1009C18.7912 15.1009 21.6346 15.1009 22.0879 15.1009C22.2447 14.667 22.4505 13.006 22.2638 11.6824C21.9403 9.38798 20.9913 7.82341 19.5437 6.41092C17.884 4.79532 16.0853 3.85024 13.495 3.63203Z" fill="white" fill-opacity="0.95"/>
</svg>
